<svg width="24" height="24" viewBox="0 0 24 24" fill="none" xmlns="http://www.w3.org/2000/svg">
<g id="Frame 57">
<g id="Group">
<path id="Vector" d="M5.14283 5H18.8571C19.4888 5 20 5.51117 20 6.14286C20 6.77455 19.4888 7.28572 18.8571 7.28572H5.14283C4.51114 7.28572 3.99997 6.77455 3.99997 6.14286C3.99997 5.51117 4.51114 5 5.14283 5Z" fill="#1F1F1F"/>
<path id="Vector_2" d="M9.71427 10.7126H18.8571C19.4888 10.7126 20 11.2238 20 11.8555C20 12.4872 19.4888 12.9984 18.8571 12.9984H9.71427C9.08258 12.9984 8.57141 12.4872 8.57141 11.8555C8.57141 11.2238 9.08258 10.7126 9.71427 10.7126Z" fill="#1F1F1F"/>
<path id="Vector_3" d="M14.2857 16.4253H18.8571C19.4888 16.4253 20 16.9365 20 17.5682C20 18.1998 19.4888 18.711 18.8571 18.711H14.2857C13.654 18.711 13.1428 18.1998 13.1428 17.5682C13.1428 16.9365 13.654 16.4253 14.2857 16.4253Z" fill="#1F1F1F"/>
</g>
</g>
</svg>
