<svg width="32" height="32" viewBox="0 0 32 32" fill="none" xmlns="http://www.w3.org/2000/svg">
<g id="noun-send-1051382 1" clip-path="url(#clip0_95_113)">
<path id="Vector" d="M6.74149 8.33684L10.8812 17.0805L7.19403 26.0261C7.02215 26.3922 7.12358 26.7972 7.42535 27.0839C7.70355 27.3482 8.11322 27.4288 8.49353 27.2608L29.7915 17.4807C30.1267 17.313 30.3663 16.9682 30.3344 16.5844C30.3251 16.2222 30.0897 15.8657 29.7463 15.7171L7.9762 7.03878C7.58775 6.88869 7.18273 6.99013 6.91841 7.26833C6.6317 7.5701 6.57468 8.00214 6.74148 8.33651L6.74149 8.33684ZM26.9424 16.6705L9.91663 24.5074L12.4951 18.262L17.4715 18.1347L17.4229 16.235L12.6724 16.3112L9.53808 9.7141L26.9424 16.6705Z" fill="black"/>
</g>
<defs>
<clipPath id="clip0_95_113">
<rect width="32" height="32" fill="white"/>
</clipPath>
</defs>
</svg>
