<svg width="20" height="20" viewBox="0 0 20 20" fill="none" xmlns="http://www.w3.org/2000/svg">
<g id="noun-logout-5353313 1">
<g id="Group">
<path id="Vector" fill-rule="evenodd" clip-rule="evenodd" d="M1.66644 4.16638C1.66644 2.78592 2.78598 1.66638 4.16644 1.66638H10.8336C12.2141 1.66638 13.3336 2.78592 13.3336 4.16638V6.24998H11.6665V4.16638C11.6665 3.70622 11.2938 3.33356 10.8336 3.33356H7.36644L9.66724 4.87888C10.4118 5.37888 10.8336 6.24138 10.8336 7.13428V13.3335C11.2938 13.3335 11.6665 12.96 11.6665 12.4999V10.4163H13.3336V12.4999C13.3336 13.8803 12.2141 14.9999 10.8336 14.9999V15.6647C10.8336 16.6663 10.3297 17.5139 9.58598 17.9725C8.83442 18.4358 7.84614 18.4889 6.99918 17.9202L2.83278 15.121C2.08902 14.621 1.66638 13.7585 1.66638 12.8656L1.66644 4.16638ZM3.33362 4.33513C3.33362 3.90545 3.54222 3.59841 3.78908 3.44607C4.02736 3.2992 4.30704 3.28592 4.57112 3.46326L8.73752 6.26246C8.9844 6.42808 9.16642 6.75074 9.16642 7.13434V15.6647C9.16642 16.0944 8.95782 16.4015 8.71096 16.5538C8.47268 16.7007 8.193 16.714 7.92892 16.5366L3.76252 13.7374C3.51564 13.5718 3.33362 13.2491 3.33362 12.8655V4.33513Z" fill="black"/>
<path id="Vector_2" d="M18.0891 8.92253L15.5891 11.4225C15.2641 11.7475 14.736 11.7475 14.411 11.4225C14.0852 11.0967 14.0852 10.5694 14.411 10.2436L15.4883 9.16629H12.5001C12.0399 9.16629 11.6665 8.79363 11.6665 8.33347C11.6665 7.87331 12.0399 7.49987 12.5001 7.49987H15.4883L14.411 6.42253C14.0852 6.09675 14.0852 5.56941 14.411 5.24363C14.736 4.91863 15.2641 4.91863 15.5891 5.24363L18.0891 7.74363C18.4149 8.06941 18.4149 8.59675 18.0891 8.92253Z" fill="black"/>
</g>
</g>
</svg>
