<svg width="38" height="37" viewBox="0 0 38 37" fill="none" xmlns="http://www.w3.org/2000/svg">
<path d="M29.0588 37L8.94117 37C3.98846 37 3.45318e-10 33.1165 2.95033e-10 28.2941L0 8.70588C0 3.88351 3.98846 0 8.94117 0L29.0588 -3.03007e-10C34.0115 -3.54651e-10 38 3.88351 38 8.70588L38 28.2941C38 33.1165 33.9677 37 29.0588 37Z" fill="url(#paint0_linear_18_631)"/>
<path d="M27.5691 23.3854C27.8321 24.495 28.0074 25.9033 28.0951 26.8421C28.1389 27.1409 28.0074 27.4396 27.7444 27.653C27.4815 27.8664 27.1747 27.909 26.8679 27.8237L19.899 25.9886C19.373 28.1224 17.3569 29.7441 14.9901 29.7441C12.6233 29.7441 10.5634 28.1224 10.0812 25.8606C9.94974 25.3485 10.3004 24.879 10.8263 24.751C11.3523 24.623 11.8344 24.9644 11.9659 25.4765C12.2727 26.8848 13.5876 27.909 15.0339 27.909C16.7871 27.909 18.1896 26.5434 18.1896 24.8364C18.1896 24.5376 18.3211 24.2816 18.5403 24.1109C18.7594 23.9402 19.0662 23.8975 19.373 23.9402L26.0351 25.6899C25.8598 24.4523 25.6406 23.3 25.5091 23.0013C25.29 22.7026 25.29 22.3185 25.4653 22.0198C25.6406 21.721 26.0351 21.5503 26.3857 21.593C26.5172 21.593 26.6487 21.6357 26.7364 21.6357C28.4895 21.6357 29.8921 20.2701 29.8921 18.563C29.8921 16.856 28.4895 15.4904 26.7364 15.4904C26.6049 15.4904 26.4296 15.4904 26.2542 15.533C26.2104 15.533 26.1666 15.533 26.0789 15.533L23.0985 17.5388C22.9232 17.6668 22.7479 17.7095 22.5726 17.7095C22.2658 17.7095 21.959 17.5815 21.7836 17.3254C21.4768 16.8987 21.6083 16.3439 22.0466 16.0451L25.5091 13.7406C25.553 13.698 25.5968 13.698 25.6845 13.6553C25.9474 13.1859 26.0789 12.6737 26.0789 12.1616C26.0789 10.4546 24.6764 9.08897 22.9232 9.08897C21.17 9.08897 19.7675 10.4546 19.7675 12.1616L19.7675 12.2043C19.7675 12.5884 19.7675 16.3865 19.7675 18.6484C19.7675 19.5446 19.7675 20.2701 19.7675 20.6115C19.7675 21.1236 19.3292 21.5503 18.8033 21.5503C18.2773 21.5503 17.839 21.1236 17.839 20.6115C17.839 20.2274 17.839 19.5019 17.839 18.6484C17.839 15.4904 17.839 12.6311 17.839 12.1616C17.839 9.47305 20.1181 7.25391 22.8794 7.25391C25.6406 7.25391 27.9198 9.47305 27.9198 12.1616C27.9198 12.7164 27.8321 13.2712 27.6129 13.7833C29.9359 14.2101 31.7329 16.2158 31.7329 18.6057C31.7767 20.9955 29.9797 23.044 27.5691 23.3854ZM10.4319 23.2574C10.8702 23.2574 11.2646 22.9586 11.3523 22.4892C11.4399 21.9771 11.1331 21.5077 10.6072 21.4223C9.11698 21.1662 8.06508 19.886 8.06508 18.3923C8.06508 16.6853 9.46762 15.3196 11.2208 15.3196C11.2646 15.3196 11.3084 15.3196 11.3523 15.3196L14.5956 17.4961C14.771 17.6241 14.9463 17.6668 15.1216 17.6668C15.4284 17.6668 15.7352 17.5388 15.9105 17.2827C16.2173 16.856 16.0858 16.3012 15.6475 16.0025L12.3604 13.7833C12.0535 13.2712 11.8782 12.7164 11.8782 12.119C11.8782 10.4119 13.2808 9.0463 15.0339 9.0463C15.3407 9.0463 15.6037 9.08897 15.8667 9.17432C15.9544 9.217 16.042 9.217 16.1297 9.25968C16.6118 9.43038 17.1816 9.217 17.3569 8.74756C17.5322 8.27813 17.3131 7.72334 16.8309 7.55264C16.6994 7.50996 16.5241 7.46729 16.3926 7.42461C15.9544 7.29658 15.5161 7.25391 15.0339 7.25391C12.2727 7.25391 9.99357 9.47305 9.99357 12.1616C9.99357 12.6737 10.0812 13.1432 10.2127 13.6126C7.88976 14.082 6.18042 16.0451 6.18042 18.435C6.18042 20.7822 7.88976 22.8306 10.2565 23.2574C10.3442 23.2574 10.388 23.2574 10.4319 23.2574Z" fill="white"/>
<defs>
<linearGradient id="paint0_linear_18_631" x1="41.2465" y1="32.5781" x2="18.4879" y2="17.3852" gradientUnits="userSpaceOnUse">
<stop stop-color="#7BD8C3"/>
<stop offset="1" stop-color="#6E6CC8"/>
</linearGradient>
</defs>
</svg>
