<svg width="20" height="20" viewBox="0 0 20 20" fill="none" xmlns="http://www.w3.org/2000/svg">
<g id="noun-refresh-1051890 1">
<g id="Group">
<g id="Vector">
<path d="M10 16C6.68684 16 4.00004 13.314 4.00004 9.99998C4.00004 6.68598 6.68684 3.99998 10 3.99998C12.4876 3.99998 14.621 5.51404 15.5304 7.67038L16.507 7.4196C15.4797 4.8314 12.9546 3 10 3C6.1344 3 3 6.1344 3 10C3 13.8656 6.1344 17 10 17" fill="#1F1F1F"/>
<path d="M10 16C6.68684 16 4.00004 13.314 4.00004 9.99998C4.00004 6.68598 6.68684 3.99998 10 3.99998C12.4876 3.99998 14.621 5.51404 15.5304 7.67038L16.507 7.4196C15.4797 4.8314 12.9546 3 10 3C6.1344 3 3 6.1344 3 10C3 13.8656 6.1344 17 10 17" stroke="#1F1F1F"/>
</g>
<path id="Vector_2" d="M15.9824 9.56348L16.5457 10.0002L15.9824 9.56348Z" fill="#1F1F1F"/>
<path id="Vector_3" d="M16.7978 12L17.4104 10.6092L19 7L16.7398 7.64727L15.2614 8.06911L13 8.71769L15.945 11.2632" fill="#1F1F1F"/>
</g>
</g>
</svg>
