<svg width="20" height="20" viewBox="0 0 20 20" fill="none" xmlns="http://www.w3.org/2000/svg">
<g id="noun-settings-5371016 2">
<g id="Group">
<path id="Vector" d="M17.3779 8.14989C17.0568 7.91239 16.7857 7.61551 16.5779 7.27489C16.4748 6.86629 16.4521 6.44207 16.5123 6.02489C16.5592 5.28427 16.6092 4.46239 16.0779 3.91249C15.5467 3.36259 14.706 3.43749 13.9655 3.48749C13.5483 3.54687 13.1241 3.52499 12.7155 3.42187C12.3749 3.21405 12.078 2.94297 11.8405 2.62187C11.353 2.05311 10.7874 1.40625 9.99989 1.40625C9.21239 1.40625 8.64677 2.05313 8.14989 2.62187C7.91395 2.94843 7.61707 3.22499 7.27489 3.43749C6.86629 3.54061 6.44207 3.56327 6.02489 3.50311C5.28427 3.45624 4.46239 3.40624 3.91249 3.93749C3.36259 4.46875 3.43749 5.29373 3.48749 6.03429C3.54765 6.45147 3.52499 6.87569 3.42187 7.28429C3.21405 7.62491 2.94297 7.92179 2.62187 8.15929C2.05311 8.64679 1.40625 9.21241 1.40625 9.99991C1.40625 10.7874 2.05313 11.353 2.62187 11.8499C2.94843 12.0859 3.22499 12.3827 3.43749 12.7249C3.54061 13.1335 3.56327 13.5577 3.50311 13.9749C3.45624 14.7155 3.40624 15.553 3.93749 16.0873C4.46875 16.6216 5.30937 16.5686 6.04989 16.5217C6.46707 16.4615 6.89129 16.4842 7.29989 16.5873C7.64051 16.7951 7.93739 17.0662 8.17489 17.3873C8.67177 17.9561 9.23739 18.6029 10.0249 18.6029C10.8124 18.6029 11.378 17.9561 11.8749 17.3873C12.1124 17.0662 12.4093 16.7951 12.7499 16.5873C13.1585 16.4842 13.5827 16.4615 13.9999 16.5217C14.7405 16.5686 15.578 16.6186 16.1123 16.0873C16.6466 15.5561 16.5935 14.7154 16.5467 13.9749C16.4865 13.5577 16.5092 13.1335 16.6123 12.7249C16.8201 12.3843 17.0912 12.0874 17.4123 11.8499C17.9811 11.353 18.6279 10.7874 18.6279 9.99991C18.6279 9.21241 17.9467 8.64679 17.3779 8.14991V8.14989ZM16.7529 11.1437C16.3154 11.4679 15.9553 11.8851 15.6998 12.3656C15.5357 12.9015 15.4904 13.4671 15.5685 14.0218C15.6029 14.5906 15.6404 15.1781 15.4029 15.4124C15.1654 15.6468 14.581 15.6124 14.0123 15.5781C13.4576 15.4999 12.892 15.5445 12.3561 15.7093C11.8756 15.9648 11.4584 16.3249 11.1342 16.7624C10.7592 17.1874 10.3623 17.6562 9.9998 17.6562C9.6373 17.6562 9.24042 17.1874 8.85604 16.7624C8.53182 16.3249 8.11464 15.9648 7.63416 15.7093C7.3162 15.5921 6.9787 15.5382 6.6404 15.5499C6.42164 15.5499 6.19664 15.5499 5.9779 15.5781C5.40914 15.6124 4.82166 15.6468 4.58728 15.4124C4.3529 15.1781 4.38728 14.5906 4.42166 14.0218C4.49978 13.4671 4.45447 12.9015 4.29041 12.3656C4.03495 11.8851 3.67479 11.4679 3.23729 11.1437C2.81229 10.7593 2.34353 10.3625 2.34353 9.99993C2.34353 9.63741 2.81229 9.24055 3.23729 8.85617C3.67479 8.53195 4.03495 8.11477 4.29041 7.63429C4.45447 7.09835 4.49979 6.53273 4.42166 5.97805C4.38728 5.40929 4.34978 4.82181 4.58728 4.58743C4.82478 4.35305 5.40916 4.38743 5.9779 4.42181C6.53258 4.49993 7.09822 4.45462 7.63414 4.29056C8.1146 4.0351 8.5318 3.67494 8.85602 3.23744C9.2404 2.81244 9.63726 2.34368 9.99978 2.34368C10.3623 2.34368 10.7592 2.81244 11.1435 3.23744C11.4678 3.67494 11.8849 4.0351 12.3654 4.29056C12.9006 4.45618 13.467 4.5015 14.0217 4.42181C14.5904 4.38743 15.1779 4.35306 15.4123 4.58743C15.6467 4.82181 15.6123 5.40931 15.5779 5.97805C15.4998 6.53273 15.5451 7.09837 15.7092 7.63429C15.9646 8.11475 16.3248 8.53195 16.7623 8.85617C17.1873 9.24055 17.656 9.63741 17.656 9.99993C17.656 10.3625 17.1873 10.7593 16.7623 11.1437L16.7529 11.1437Z" fill="#1F1F1F" stroke="#1F1F1F" stroke-width="0.3"/>
<path id="Vector_2" d="M10.0024 7.31739C9.47119 7.31739 8.95243 7.4752 8.51103 7.76973C8.06963 8.06505 7.72587 8.48379 7.52275 8.97441C7.31963 9.46503 7.26651 10.0049 7.36963 10.5252C7.47353 11.0463 7.72901 11.5244 8.10401 11.9002C8.47979 12.2752 8.95791 12.5306 9.47901 12.6346C9.99933 12.7385 10.5392 12.6853 11.0298 12.4822C11.5204 12.2783 11.9392 11.9346 12.2345 11.4932C12.5298 11.0518 12.6868 10.533 12.6868 10.0018C12.686 9.29004 12.4032 8.608 11.9001 8.10488C11.3962 7.60098 10.7141 7.31816 10.0024 7.31738L10.0024 7.31739ZM10.0024 11.7486C9.65711 11.7486 9.31961 11.6462 9.03211 11.454C8.74461 11.2626 8.52117 10.9892 8.38835 10.6704C8.25632 10.3509 8.22195 10.0001 8.28913 9.66107C8.35632 9.32201 8.52273 9.01107 8.76725 8.76653C9.01179 8.52199 9.32271 8.35559 9.66179 8.28841C10.0009 8.22122 10.3516 8.2556 10.6712 8.38763C10.9899 8.52044 11.2634 8.74387 11.4548 9.03139C11.647 9.31889 11.7493 9.65639 11.7493 10.0017C11.7485 10.465 11.5642 10.9087 11.2368 11.2361C10.9095 11.5634 10.4657 11.7478 10.0024 11.7486L10.0024 11.7486Z" fill="#1F1F1F" stroke="#1F1F1F" stroke-width="0.3"/>
</g>
</g>
</svg>
