<svg width="48" height="48" viewBox="0 0 48 48" fill="none" xmlns="http://www.w3.org/2000/svg">
<rect width="48" height="48" rx="24" transform="matrix(-1 0 0 1 48 0)" fill="#F2F2F2"/>
<path d="M30.8572 17H17.1429C16.5112 17 16 17.5112 16 18.1429C16 18.7745 16.5112 19.2857 17.1429 19.2857H30.8572C31.4889 19.2857 32 18.7745 32 18.1429C32 17.5112 31.4889 17 30.8572 17Z" fill="#1F1F1F"/>
<path d="M26.2857 22.7126H17.1429C16.5112 22.7126 16 23.2238 16 23.8555C16 24.4872 16.5112 24.9984 17.1429 24.9984H26.2857C26.9174 24.9984 27.4286 24.4872 27.4286 23.8555C27.4286 23.2238 26.9174 22.7126 26.2857 22.7126Z" fill="#1F1F1F"/>
<path d="M21.7143 28.4254H17.1429C16.5112 28.4254 16 28.9365 16 29.5682C16 30.1999 16.5112 30.7111 17.1429 30.7111H21.7143C22.346 30.7111 22.8572 30.1999 22.8572 29.5682C22.8572 28.9365 22.346 28.4254 21.7143 28.4254Z" fill="#1F1F1F"/>
</svg>
